<?xml version="1.0" standalone="no"?>
<!DOCTYPE svg PUBLIC "-//W3C//DTD SVG 20010904//EN"
 "http://www.w3.org/TR/2001/REC-SVG-20010904/DTD/svg10.dtd">
<svg version="1.0" xmlns="http://www.w3.org/2000/svg"
 width="1161.000000pt" height="1161.000000pt" viewBox="0 0 1161.000000 1161.000000"
 preserveAspectRatio="xMidYMid meet">
<metadata>
Created by potrace 1.11, written by Peter Selinger 2001-2013
</metadata>
<g transform="translate(0.000000,1161.000000) scale(0.100000,-0.100000)"
fill="#000000" stroke="none">
<path d="M5538 11545 c-2 -2 -39 -5 -83 -7 -44 -2 -86 -8 -94 -12 -10 -7 -12
-5 -6 3 5 10 3 11 -11 4 -11 -5 -40 -9 -66 -9 -27 1 -48 -2 -48 -5 0 -4 -10
-7 -22 -6 -37 1 -182 -14 -192 -21 -6 -3 -26 -7 -45 -8 -36 -3 -68 -8 -131
-19 -63 -11 -74 -13 -180 -35 -58 -12 -114 -23 -125 -25 -11 -2 -56 -13 -100
-25 -91 -23 -124 -31 -142 -32 -7 -1 -13 -4 -13 -8 0 -4 -6 -7 -12 -8 -30 -2
-296 -81 -343 -102 -17 -7 -52 -19 -75 -25 -3 -1 -18 -7 -35 -14 -16 -6 -43
-16 -60 -22 -16 -6 -49 -20 -72 -30 -24 -11 -45 -19 -47 -19 -3 0 -17 -5 -33
-12 -15 -6 -30 -12 -33 -13 -3 0 -20 -9 -37 -18 -18 -10 -36 -18 -40 -19 -16
-2 -58 -23 -64 -31 -3 -5 -8 -8 -10 -7 -10 4 -59 -13 -59 -21 0 -5 -7 -9 -15
-9 -18 0 -97 -40 -107 -54 -4 -6 -8 -8 -8 -3 0 7 -123 -55 -147 -75 -7 -6 -13
-7 -13 -3 0 4 -6 3 -12 -3 -7 -5 -30 -19 -50 -30 -48 -27 -243 -143 -273 -162
-12 -8 -41 -26 -64 -39 -22 -14 -41 -28 -41 -33 0 -4 -6 -8 -14 -8 -8 0 -21
-6 -28 -13 -12 -11 -89 -65 -157 -109 -25 -17 -59 -43 -103 -80 -11 -10 -29
-20 -39 -23 -11 -4 -17 -11 -14 -16 4 -5 0 -9 -8 -9 -8 0 -17 -7 -21 -15 -3
-8 -11 -15 -17 -15 -7 0 -19 -7 -28 -15 -9 -8 -28 -26 -44 -40 -15 -14 -27
-24 -27 -21 0 3 -13 -7 -29 -22 -16 -15 -53 -47 -82 -72 -28 -25 -65 -57 -81
-72 -16 -16 -31 -28 -33 -28 -11 0 -345 -340 -345 -351 0 -7 -3 -9 -6 -6 -4 3
-16 -6 -28 -21 -21 -27 -65 -77 -118 -133 -15 -16 -24 -29 -20 -29 4 0 -1 -5
-10 -11 -10 -5 -18 -14 -18 -19 0 -5 -12 -22 -27 -39 -58 -62 -83 -92 -83 -96
0 -5 -27 -40 -52 -67 -10 -10 -17 -19 -15 -21 1 -1 -4 -9 -11 -17 -38 -44
-100 -135 -96 -142 3 -4 1 -8 -4 -8 -11 0 -112 -145 -112 -160 0 -6 -5 -10
-11 -10 -5 0 -15 -13 -20 -30 -6 -16 -15 -30 -21 -30 -5 0 -6 -4 -3 -10 3 -5
1 -10 -4 -10 -6 0 -18 -15 -26 -32 -30 -64 -46 -88 -57 -88 -6 0 -9 -3 -5 -6
3 -3 -5 -23 -18 -44 -13 -21 -21 -41 -18 -44 4 -3 1 -6 -5 -6 -7 0 -12 -7 -12
-15 0 -8 -5 -15 -11 -15 -5 0 -7 -4 -4 -10 3 -5 3 -10 -2 -10 -4 0 -19 -24
-33 -53 -13 -28 -32 -63 -41 -77 -9 -14 -20 -36 -24 -50 -4 -13 -14 -30 -21
-38 -8 -7 -14 -22 -14 -33 0 -10 -4 -19 -10 -19 -5 0 -10 -4 -10 -9 0 -5 -15
-42 -34 -83 -19 -40 -34 -75 -33 -78 1 -3 -5 -17 -14 -30 -9 -14 -21 -42 -28
-62 -7 -21 -17 -38 -22 -38 -6 0 -8 -4 -5 -8 2 -4 -1 -21 -9 -37 -7 -17 -23
-57 -35 -90 -12 -33 -26 -65 -31 -71 -5 -6 -6 -14 -2 -17 3 -4 0 -14 -7 -23
-8 -8 -15 -23 -16 -32 -1 -10 -11 -43 -23 -74 -12 -32 -21 -64 -21 -73 0 -8
-5 -15 -10 -15 -6 0 -10 -6 -9 -12 1 -7 -6 -40 -16 -73 -18 -59 -22 -72 -28
-97 -1 -7 -6 -18 -10 -25 -4 -6 -8 -23 -9 -37 -1 -14 -6 -26 -11 -26 -4 0 -5
-5 -2 -10 4 -6 1 -17 -5 -25 -7 -8 -9 -15 -5 -15 4 0 1 -8 -6 -17 -12 -14 -12
-15 -1 -9 11 7 12 4 4 -10 -10 -20 -35 -120 -35 -141 0 -7 -3 -13 -7 -13 -3 0
-6 -8 -6 -17 -1 -18 -7 -55 -19 -103 -3 -14 -8 -41 -11 -60 -3 -19 -7 -42 -9
-50 -8 -27 -24 -125 -30 -180 -2 -19 -7 -51 -10 -70 -4 -19 -8 -50 -9 -67 0
-18 -3 -33 -6 -33 -3 0 -5 -20 -4 -45 0 -25 -2 -45 -5 -45 -3 0 -6 -21 -6 -48
1 -26 -3 -53 -8 -59 -6 -8 -5 -13 2 -13 7 0 8 -8 3 -22 -13 -36 -17 -159 -16
-473 1 -272 3 -346 19 -520 4 -38 8 -91 8 -117 1 -27 5 -48 9 -48 4 0 7 -10 7
-23 -1 -24 6 -90 17 -152 4 -22 7 -48 8 -57 0 -10 3 -18 6 -18 3 0 5 -10 6
-22 1 -26 10 -81 18 -118 3 -14 8 -38 11 -55 4 -26 9 -53 20 -105 2 -8 4 -15
5 -15 2 0 5 -14 13 -55 3 -14 13 -54 22 -90 9 -36 19 -72 21 -80 10 -41 24
-92 44 -155 12 -38 24 -82 27 -98 3 -15 9 -27 12 -27 4 0 8 -6 8 -13 0 -19 65
-208 114 -332 7 -16 12 -33 11 -37 -1 -5 2 -8 8 -8 6 0 9 -3 8 -7 -2 -5 6 -28
16 -53 11 -25 20 -51 22 -59 1 -8 6 -17 11 -20 4 -3 9 -13 11 -21 2 -8 17 -43
34 -78 17 -36 31 -71 31 -78 0 -7 7 -16 14 -18 8 -3 11 -10 8 -16 -3 -5 -1
-10 4 -10 6 0 11 -6 11 -12 0 -13 50 -119 61 -128 8 -7 22 -44 21 -52 -1 -5 2
-8 8 -8 5 0 10 -6 10 -13 0 -7 11 -29 25 -50 14 -20 23 -37 20 -37 -4 0 1 -7
9 -16 9 -8 16 -22 16 -30 0 -8 5 -14 11 -14 5 0 7 -4 4 -10 -3 -5 -1 -10 4
-10 6 0 11 -7 11 -15 0 -8 5 -15 10 -15 6 0 9 -3 8 -7 -1 -5 14 -34 35 -66 20
-31 37 -62 37 -67 0 -6 5 -10 11 -10 5 0 8 -4 5 -9 -4 -5 -3 -11 1 -13 12 -5
73 -95 73 -107 0 -6 5 -11 10 -11 6 0 10 -7 10 -15 0 -8 4 -15 8 -15 5 0 15
-12 23 -27 7 -16 24 -38 36 -49 12 -12 20 -24 17 -26 -2 -3 5 -13 16 -23 11
-10 20 -24 20 -31 0 -7 3 -14 7 -16 16 -7 82 -96 76 -102 -4 -3 -2 -6 3 -6 5
0 32 -29 59 -65 27 -36 53 -65 59 -65 5 0 7 -2 4 -5 -3 -3 15 -27 39 -53 24
-26 51 -59 61 -74 9 -16 22 -28 29 -28 7 0 13 -5 13 -10 0 -12 51 -69 176
-196 45 -45 79 -85 76 -88 -3 -3 -1 -6 5 -6 6 0 42 -30 79 -66 38 -37 96 -89
128 -118 33 -28 75 -66 94 -84 18 -17 38 -32 43 -32 5 0 9 -5 9 -10 0 -6 8
-14 18 -17 9 -4 24 -14 32 -22 16 -17 111 -94 156 -126 15 -11 32 -25 38 -30
6 -6 28 -21 48 -35 21 -14 38 -28 38 -32 0 -5 5 -8 10 -8 6 0 35 -18 64 -40
29 -22 58 -40 64 -40 7 0 12 -4 12 -8 0 -4 14 -17 31 -27 17 -11 43 -28 58
-37 14 -10 33 -21 41 -25 8 -4 40 -24 72 -45 31 -21 61 -38 67 -38 5 0 11 -4
13 -8 2 -5 39 -28 83 -52 44 -24 83 -48 87 -54 4 -6 8 -8 8 -3 0 4 17 -3 38
-16 20 -13 52 -29 70 -36 17 -8 32 -17 32 -22 0 -5 8 -9 19 -9 26 0 45 -27 43
-60 l-2 -29 82 -4 c80 -4 158 -24 158 -39 0 -5 6 -8 13 -8 7 0 33 -10 57 -21
24 -12 49 -22 54 -23 6 -1 18 -6 26 -11 8 -5 20 -10 25 -11 6 -1 24 -8 40 -15
17 -7 32 -13 35 -13 3 -1 10 -4 15 -7 15 -9 109 -39 119 -38 5 0 12 -4 15 -9
3 -6 17 -12 31 -13 14 -2 27 -7 30 -11 3 -4 16 -9 28 -11 12 -2 25 -6 28 -10
4 -4 17 -7 29 -7 12 0 25 -3 29 -7 3 -4 12 -8 19 -9 7 -2 33 -10 59 -18 25 -8
49 -12 52 -9 3 4 6 2 6 -4 0 -6 12 -13 28 -16 15 -2 106 -25 202 -50 96 -25
189 -46 205 -48 17 -2 36 -7 43 -12 6 -5 12 -7 12 -4 0 3 17 1 38 -4 33 -8 92
-18 132 -23 9 -1 20 -5 26 -8 5 -4 22 -5 37 -4 15 2 27 0 27 -3 0 -3 12 -7 28
-7 15 -1 54 -6 87 -12 40 -7 307 -10 800 -8 407 2 747 4 755 5 46 8 129 21
155 26 17 2 50 8 75 11 25 3 47 8 50 9 3 2 26 6 50 10 51 8 74 13 78 15 3 3
86 20 127 25 6 1 17 5 25 8 8 3 62 17 120 32 58 14 114 28 125 31 11 3 25 6
30 7 6 2 15 5 20 9 6 3 26 9 45 14 49 11 49 11 55 14 3 1 8 3 13 4 4 1 12 4
17 7 6 4 26 10 45 15 45 10 40 9 75 23 17 7 37 14 45 16 15 3 135 48 180 67
14 6 30 12 35 13 6 2 27 10 48 18 20 9 38 16 40 15 1 -1 13 5 27 12 14 8 28
13 33 12 4 -1 7 2 7 8 0 6 3 9 8 8 14 -3 62 14 62 23 0 5 8 9 18 9 10 0 28 7
40 16 12 8 22 13 22 9 0 -3 11 2 25 11 14 9 25 12 25 8 0 -5 4 -4 8 2 9 13
124 70 135 66 4 -1 7 2 7 6 0 5 19 16 43 26 23 11 50 26 60 34 9 8 17 11 17 6
0 -5 4 -4 8 1 4 6 27 21 52 34 110 58 300 174 300 184 0 6 3 7 6 4 7 -7 63 29
76 48 4 5 12 11 18 11 5 1 13 2 18 3 4 0 20 12 35 26 15 14 27 22 27 18 0 -4
6 -1 13 7 15 18 104 80 116 80 5 0 15 7 22 17 8 9 39 34 69 56 30 22 57 43 60
46 3 4 22 19 43 34 20 16 48 38 62 50 13 12 37 32 52 44 15 12 38 31 50 42 12
12 28 21 34 21 7 0 9 3 6 6 -4 4 8 18 26 33 18 14 48 40 66 56 51 45 363 355
357 355 -2 0 19 24 47 53 29 29 70 75 92 102 22 27 48 57 58 67 9 10 14 18 11
18 -4 0 4 10 17 23 13 12 35 37 49 56 14 18 31 39 38 46 6 8 12 16 12 19 0 3
8 14 18 25 28 30 66 81 83 112 9 16 19 26 23 22 3 -3 6 1 6 11 0 9 7 19 15 22
8 4 15 15 15 25 0 10 4 19 8 19 4 0 21 20 36 44 15 24 36 53 47 65 11 12 17
21 13 21 -3 0 5 15 20 34 14 19 26 37 26 41 0 3 16 29 36 58 20 28 40 61 45
72 5 11 23 43 39 70 17 28 34 57 37 65 4 8 9 17 13 20 12 10 174 332 184 368
4 12 12 22 17 22 5 0 8 3 7 8 -1 4 7 27 18 52 10 25 18 48 16 53 -1 4 2 7 7 7
5 0 12 13 16 30 4 16 11 30 16 30 6 0 8 3 5 8 -2 4 4 25 14 47 11 22 19 43 20
46 0 4 8 24 17 45 9 22 18 44 19 49 1 6 8 24 15 40 15 36 14 32 24 70 4 17 11
35 16 40 4 6 7 12 7 15 -1 3 7 30 17 60 11 30 20 58 21 63 1 4 3 9 4 12 1 3 3
8 4 13 1 4 10 34 21 67 10 33 19 65 21 70 1 6 7 30 15 55 7 25 13 50 15 55 1
6 7 30 14 55 7 25 14 52 15 60 2 8 8 35 14 60 17 67 24 102 25 128 1 12 4 22
7 22 3 0 6 6 6 13 1 6 4 26 7 42 3 17 8 50 12 75 4 25 12 51 18 59 9 12 8 13
-4 6 -12 -7 -13 -6 -4 6 6 8 10 24 9 37 -1 12 1 22 4 22 4 0 6 17 6 38 -1 20
2 42 6 47 3 6 7 17 7 25 0 8 4 38 8 65 10 62 10 1385 1 1440 -4 22 -9 54 -11
70 -3 17 -5 30 -6 30 0 0 -3 23 -6 50 -4 50 -11 90 -14 90 -1 0 -3 11 -5 25
-4 36 -18 115 -31 170 -3 14 -7 32 -8 40 -2 8 -6 29 -9 45 -4 17 -10 40 -12
53 -3 12 -7 30 -10 40 -16 60 -22 92 -18 92 3 0 1 6 -4 13 -9 10 -20 55 -24
92 -1 6 -5 18 -11 28 -5 10 -12 31 -14 45 -3 15 -7 34 -11 42 -3 8 -7 17 -8
20 -23 88 -30 110 -35 110 -3 0 -7 12 -8 27 -1 15 -8 30 -15 35 -6 4 -9 8 -5
8 4 0 -4 30 -18 68 -14 37 -24 67 -24 67 1 0 -3 13 -9 28 -6 15 -14 39 -17 52
-3 14 -11 25 -17 25 -6 0 -8 3 -5 6 4 3 -1 22 -9 42 -8 20 -20 48 -26 62 -6
14 -11 27 -12 30 -4 11 -19 47 -36 85 -9 22 -18 45 -20 50 -1 6 -13 31 -26 56
-13 26 -23 52 -23 58 0 6 -4 11 -10 11 -5 0 -10 5 -10 11 0 13 -75 166 -91
185 -6 8 -8 14 -4 14 5 0 1 8 -7 18 -8 9 -21 32 -29 50 -8 17 -17 32 -21 32
-5 0 -8 9 -8 20 0 11 -4 20 -10 20 -5 0 -10 4 -10 10 0 5 -18 39 -40 75 -22
36 -40 70 -40 75 0 6 -4 10 -10 10 -5 0 -10 7 -10 15 0 8 -4 15 -10 15 -5 0
-10 5 -10 11 0 6 -13 30 -30 54 -16 24 -30 48 -30 53 0 6 -4 12 -9 14 -5 2
-17 17 -27 34 -30 50 -122 180 -139 198 -9 9 -14 16 -11 16 6 0 -17 30 -46 62
-10 10 -15 18 -11 18 3 0 -4 9 -17 20 -13 11 -20 20 -17 20 7 0 -22 37 -61 76
-13 13 -20 24 -17 24 4 0 0 6 -7 13 -7 8 -31 36 -53 62 -22 27 -50 59 -62 72
-13 13 -23 25 -23 27 0 1 -26 31 -57 66 -76 82 -373 382 -373 375 0 -2 -19 15
-43 38 -55 53 -180 162 -251 217 -11 8 -30 25 -43 37 -13 12 -23 20 -23 17 0
-2 -26 16 -57 41 -92 73 -103 83 -102 92 4 26 -4 33 -41 33 -22 0 -40 4 -40 8
0 5 -16 17 -35 28 -19 10 -35 22 -35 26 0 5 -4 8 -10 8 -11 0 -102 60 -112 75
-4 6 -8 6 -8 2 0 -4 -10 1 -22 13 -12 11 -27 20 -34 20 -7 0 -14 3 -16 8 -4 9
-57 41 -80 49 -10 3 -18 9 -18 14 0 5 -5 9 -11 9 -5 0 -26 11 -46 25 -20 13
-40 22 -45 19 -4 -3 -8 -1 -8 4 0 8 -18 19 -150 87 -41 21 -82 44 -90 51 -8 7
-19 13 -23 12 -4 0 -45 18 -90 40 -45 22 -89 42 -97 44 -8 2 -17 5 -20 8 -3 3
-35 18 -72 34 -38 16 -68 33 -68 38 0 5 -4 6 -10 3 -5 -3 -16 -3 -22 2 -7 4
-15 8 -18 8 -3 1 -22 9 -44 18 -21 9 -41 17 -44 17 -5 0 -53 18 -147 55 -11 4
-24 9 -30 11 -5 1 -29 9 -52 17 -22 9 -44 13 -47 10 -3 -4 -6 -1 -6 5 0 7 -3
11 -7 10 -5 0 -15 1 -23 4 -26 10 -125 40 -137 42 -7 1 -15 5 -19 8 -3 4 -12
4 -20 1 -8 -3 -14 -1 -14 4 0 5 -6 10 -12 11 -22 1 -71 13 -80 18 -8 5 -50 15
-78 18 -9 1 -20 5 -25 8 -6 3 -37 12 -70 19 -71 15 -73 16 -80 19 -3 1 -14 4
-25 5 -11 1 -21 4 -22 5 -2 1 -12 4 -23 5 -35 5 -97 16 -119 22 -11 3 -32 7
-46 8 -14 2 -36 7 -50 10 -14 3 -41 8 -60 11 -19 2 -51 7 -70 10 -19 3 -46 7
-60 9 -14 1 -43 5 -65 9 -54 8 -137 16 -215 21 -36 2 -65 5 -65 5 0 9 -738 24
-747 15z"/>
</g>
</svg>
